# xmcd
#
# Track frame offsets:
#	150
#	15865
#	31860
#	44687
#	52105
#	66497
#	77347
#	90692
#	103177
#	115025
#	126890
#	140067
#	154705
#	168562
#	181557
#
# Disc length: 2554
#
# Revision: 3
# Processed by: cddbd v1.5.1PL0 Copyright (c) Steve Scherf et al.
# Submitted via: KiC 2.1 - (C) 1996-1998 Alwin Hoogerdijk
# Normalized: r2:DSETVAR1
#
DISCID=c109f80f
DTITLE=Various Artist - High Lonesome
DYEAR=1900
DGENRE=
TTITLE0=Bill Monroe - With Body And Soul
TTITLE1=Kenny Baker - Jerusalem Ridge
TTITLE2=Ralph Stanley - The Fields Have Turned Brown
TTITLE3=Bill Monroe - Going Across The Sea
TTITLE4=Mac Wiseman - I Wonder How The Old Folks Are At Home
TTITLE5=Osborne Brothers - Rocky Top
TTITLE6=Jimmy Martin - Sunny Side Of The Mountain
TTITLE7=Jim and Jesse McReynolds - Paradise
TTITLE8=Stanley Brothers - Meet Me By The Moonlight
TTITLE9=Bill Monroe - A Voice From On High
TTITLE10=Ralph Stanley - Gloryland
TTITLE11=Seldom Scene - Muddy Waters
TTITLE12=Osborne Brothers - Ruby
TTITLE13=Seldom Scene - Little Georgia Rose
TTITLE14=Bill Monroe - I'm On My Way To The Old Home
EXTD=
EXTT0=
EXTT1=
EXTT2=
EXTT3=
EXTT4=
EXTT5=
EXTT6=
EXTT7=
EXTT8=
EXTT9=
EXTT10=
EXTT11=
EXTT12=
EXTT13=
EXTT14=
PLAYORDER=
